# Tiled2Unity generated file. Do not modify by hand.
# Wavefront file for 'Food_Shop_mesh_0002.obj'

# Vertices (Count = 312)
v -288 -48 0
v -304 -48 0
v -304 -32 0
v -288 -32 0
v -272 -48 0
v -288 -48 0
v -288 -32 0
v -272 -32 0
v -256 -48 0
v -272 -48 0
v -272 -32 0
v -256 -32 0
v -240 -48 0
v -256 -48 0
v -256 -32 0
v -240 -32 0
v -224 -48 0
v -240 -48 0
v -240 -32 0
v -224 -32 0
v -208 -48 0
v -224 -48 0
v -224 -32 0
v -208 -32 0
v -192 -48 0
v -208 -48 0
v -208 -32 0
v -192 -32 0
v -176 -48 0
v -192 -48 0
v -192 -32 0
v -176 -32 0
v -160 -48 0
v -176 -48 0
v -176 -32 0
v -160 -32 0
v -288 -64 0
v -304 -64 0
v -304 -48 0
v -288 -48 0
v -272 -64 0
v -288 -64 0
v -288 -48 0
v -272 -48 0
v -256 -64 0
v -272 -64 0
v -272 -48 0
v -256 -48 0
v -80 -64 0
v -96 -64 0
v -96 -48 0
v -80 -48 0
v -288 -80 0
v -304 -80 0
v -304 -64 0
v -288 -64 0
v -272 -80 0
v -288 -80 0
v -288 -64 0
v -272 -64 0
v -256 -80 0
v -272 -80 0
v -272 -64 0
v -256 -64 0
v -240 -80 0
v -256 -80 0
v -256 -64 0
v -240 -64 0
v -224 -80 0
v -240 -80 0
v -240 -64 0
v -224 -64 0
v -208 -80 0
v -224 -80 0
v -224 -64 0
v -208 -64 0
v -192 -80 0
v -208 -80 0
v -208 -64 0
v -192 -64 0
v -176 -80 0
v -192 -80 0
v -192 -64 0
v -176 -64 0
v -160 -80 0
v -176 -80 0
v -176 -64 0
v -160 -64 0
v -80 -80 0
v -96 -80 0
v -96 -64 0
v -80 -64 0
v -304 -112 0
v -320 -112 0
v -320 -96 0
v -304 -96 0
v -288 -112 0
v -304 -112 0
v -304 -96 0
v -288 -96 0
v -272 -112 0
v -288 -112 0
v -288 -96 0
v -272 -96 0
v -256 -112 0
v -272 -112 0
v -272 -96 0
v -256 -96 0
v -240 -112 0
v -256 -112 0
v -256 -96 0
v -240 -96 0
v -224 -112 0
v -240 -112 0
v -240 -96 0
v -224 -96 0
v -208 -112 0
v -224 -112 0
v -224 -96 0
v -208 -96 0
v -192 -112 0
v -208 -112 0
v -208 -96 0
v -192 -96 0
v -176 -112 0
v -192 -112 0
v -192 -96 0
v -176 -96 0
v -160 -112 0
v -176 -112 0
v -176 -96 0
v -160 -96 0
v -144 -112 0
v -160 -112 0
v -160 -96 0
v -144 -96 0
v -128 -112 0
v -144 -112 0
v -144 -96 0
v -128 -96 0
v -112 -112 0
v -128 -112 0
v -128 -96 0
v -112 -96 0
v -96 -112 0
v -112 -112 0
v -112 -96 0
v -96 -96 0
v -80 -112 0
v -96 -112 0
v -96 -96 0
v -80 -96 0
v -64 -112 0
v -80 -112 0
v -80 -96 0
v -64 -96 0
v -48 -112 0
v -64 -112 0
v -64 -96 0
v -48 -96 0
v -32 -112 0
v -48 -112 0
v -48 -96 0
v -32 -96 0
v -256 -128 0
v -272 -128 0
v -272 -112 0
v -256 -112 0
v -208 -128 0
v -224 -128 0
v -224 -112 0
v -208 -112 0
v -160 -128 0
v -176 -128 0
v -176 -112 0
v -160 -112 0
v -112 -128 0
v -128 -128 0
v -128 -112 0
v -112 -112 0
v -64 -128 0
v -80 -128 0
v -80 -112 0
v -64 -112 0
v -304 -144 0
v -320 -144 0
v -320 -128 0
v -304 -128 0
v -304 -160 0
v -320 -160 0
v -320 -144 0
v -304 -144 0
v -272 -160 0
v -288 -160 0
v -288 -144 0
v -272 -144 0
v -256 -160 0
v -272 -160 0
v -272 -144 0
v -256 -144 0
v -240 -160 0
v -256 -160 0
v -256 -144 0
v -240 -144 0
v -224 -160 0
v -240 -160 0
v -240 -144 0
v -224 -144 0
v -208 -160 0
v -224 -160 0
v -224 -144 0
v -208 -144 0
v -192 -160 0
v -208 -160 0
v -208 -144 0
v -192 -144 0
v -112 -160 0
v -128 -160 0
v -128 -144 0
v -112 -144 0
v -96 -160 0
v -112 -160 0
v -112 -144 0
v -96 -144 0
v -80 -160 0
v -96 -160 0
v -96 -144 0
v -80 -144 0
v -48 -160 0
v -64 -160 0
v -64 -144 0
v -48 -144 0
v -32 -160 0
v -48 -160 0
v -48 -144 0
v -32 -144 0
v -16 -160 0
v -32 -160 0
v -32 -144 0
v -16 -144 0
v -304 -176 0
v -320 -176 0
v -320 -160 0
v -304 -160 0
v -304 -192 0
v -320 -192 0
v -320 -176 0
v -304 -176 0
v -304 -208 0
v -320 -208 0
v -320 -192 0
v -304 -192 0
v -272 -208 0
v -288 -208 0
v -288 -192 0
v -272 -192 0
v -256 -208 0
v -272 -208 0
v -272 -192 0
v -256 -192 0
v -240 -208 0
v -256 -208 0
v -256 -192 0
v -240 -192 0
v -224 -208 0
v -240 -208 0
v -240 -192 0
v -224 -192 0
v -208 -208 0
v -224 -208 0
v -224 -192 0
v -208 -192 0
v -192 -208 0
v -208 -208 0
v -208 -192 0
v -192 -192 0
v -112 -208 0
v -128 -208 0
v -128 -192 0
v -112 -192 0
v -96 -208 0
v -112 -208 0
v -112 -192 0
v -96 -192 0
v -80 -208 0
v -96 -208 0
v -96 -192 0
v -80 -192 0
v -48 -208 0
v -64 -208 0
v -64 -192 0
v -48 -192 0
v -32 -208 0
v -48 -208 0
v -48 -192 0
v -32 -192 0
v -16 -208 0
v -32 -208 0
v -32 -192 0
v -16 -192 0
v -304 -224 0
v -320 -224 0
v -320 -208 0
v -304 -208 0
v -160 -240 0
v -176 -240 0
v -176 -224 0
v -160 -224 0
v -144 -240 0
v -160 -240 0
v -160 -224 0
v -144 -224 0

# Texture cooridinates (Count = 68)
vt 0.5444215 0.8403042
vt 0.5609504 0.8403042
vt 0.5609504 0.8707224
vt 0.5444215 0.8707224
vt 0.5444215 0.904943
vt 0.5609504 0.904943
vt 0.5609504 0.9353612
vt 0.5444215 0.9353612
vt 0.5268595 0.904943
vt 0.5433884 0.904943
vt 0.5433884 0.9353612
vt 0.5268595 0.9353612
vt 0.5444215 0.8726236
vt 0.5609504 0.8726236
vt 0.5609504 0.9030418
vt 0.5444215 0.9030418
vt 0.9483471 0.6787072
vt 0.9648761 0.6787072
vt 0.9648761 0.7091255
vt 0.9483471 0.7091255
vt 0.9483471 0.9695817
vt 0.9648761 0.9695817
vt 0.9648761 1
vt 0.9483471 1
vt 0.4917355 0.9372624
vt 0.5082645 0.9372624
vt 0.5082645 0.9676806
vt 0.4917355 0.9676806
vt 0.9483471 0.9372624
vt 0.9648761 0.9372624
vt 0.9648761 0.9676806
vt 0.9483471 0.9676806
vt 0.4741735 0.9372624
vt 0.4907025 0.9372624
vt 0.4907025 0.9676806
vt 0.4741735 0.9676806
vt 0.3512397 0.8726236
vt 0.3677686 0.8726236
vt 0.3677686 0.9030418
vt 0.3512397 0.9030418
vt 0.3336777 0.8079848
vt 0.3502066 0.8079848
vt 0.3502066 0.838403
vt 0.3336777 0.838403
vt 0.3863636 0.7756654
vt 0.4028926 0.7756654
vt 0.4028926 0.8060837
vt 0.3863636 0.8060837
vt 0.3863636 0.8079848
vt 0.4028926 0.8079848
vt 0.4028926 0.838403
vt 0.3863636 0.838403
vt 0.3688017 0.8079848
vt 0.3853306 0.8079848
vt 0.3853306 0.838403
vt 0.3688017 0.838403
vt 0.3512397 0.8079848
vt 0.3677686 0.8079848
vt 0.3677686 0.838403
vt 0.3512397 0.838403
vt 0.2107438 0.5494297
vt 0.2272727 0.5494297
vt 0.2272727 0.5798479
vt 0.2107438 0.5798479
vt 0.1756198 0.5494297
vt 0.1921488 0.5494297
vt 0.1921488 0.5798479
vt 0.1756198 0.5798479

# Normal
vn 0 0 -1

# Mesh description
g Food_Shop_mesh_0002

# Faces
f 1/1/1 2/2/1 3/3/1 4/4/1
f 5/1/1 6/2/1 7/3/1 8/4/1
f 9/5/1 10/6/1 11/7/1 12/8/1
f 13/5/1 14/6/1 15/7/1 16/8/1
f 17/9/1 18/10/1 19/11/1 20/12/1
f 21/9/1 22/10/1 23/11/1 24/12/1
f 25/1/1 26/2/1 27/3/1 28/4/1
f 29/13/1 30/14/1 31/15/1 32/16/1
f 33/5/1 34/6/1 35/7/1 36/8/1
f 37/17/1 38/18/1 39/19/1 40/20/1
f 41/17/1 42/18/1 43/19/1 44/20/1
f 45/17/1 46/18/1 47/19/1 48/20/1
f 49/21/1 50/22/1 51/23/1 52/24/1
f 53/25/1 54/26/1 55/27/1 56/28/1
f 57/25/1 58/26/1 59/27/1 60/28/1
f 61/25/1 62/26/1 63/27/1 64/28/1
f 65/25/1 66/26/1 67/27/1 68/28/1
f 69/25/1 70/26/1 71/27/1 72/28/1
f 73/25/1 74/26/1 75/27/1 76/28/1
f 77/25/1 78/26/1 79/27/1 80/28/1
f 81/25/1 82/26/1 83/27/1 84/28/1
f 85/25/1 86/26/1 87/27/1 88/28/1
f 89/29/1 90/30/1 91/31/1 92/32/1
f 93/33/1 94/34/1 95/35/1 96/36/1
f 97/33/1 98/34/1 99/35/1 100/36/1
f 101/33/1 102/34/1 103/35/1 104/36/1
f 105/33/1 106/34/1 107/35/1 108/36/1
f 109/33/1 110/34/1 111/35/1 112/36/1
f 113/33/1 114/34/1 115/35/1 116/36/1
f 117/33/1 118/34/1 119/35/1 120/36/1
f 121/33/1 122/34/1 123/35/1 124/36/1
f 125/33/1 126/34/1 127/35/1 128/36/1
f 129/33/1 130/34/1 131/35/1 132/36/1
f 133/33/1 134/34/1 135/35/1 136/36/1
f 137/33/1 138/34/1 139/35/1 140/36/1
f 141/33/1 142/34/1 143/35/1 144/36/1
f 145/33/1 146/34/1 147/35/1 148/36/1
f 149/33/1 150/34/1 151/35/1 152/36/1
f 153/33/1 154/34/1 155/35/1 156/36/1
f 157/33/1 158/34/1 159/35/1 160/36/1
f 161/33/1 162/34/1 163/35/1 164/36/1
f 165/37/1 166/38/1 167/39/1 168/40/1
f 169/37/1 170/38/1 171/39/1 172/40/1
f 173/37/1 174/38/1 175/39/1 176/40/1
f 177/37/1 178/38/1 179/39/1 180/40/1
f 181/37/1 182/38/1 183/39/1 184/40/1
f 185/41/1 186/42/1 187/43/1 188/44/1
f 189/45/1 190/46/1 191/47/1 192/48/1
f 193/49/1 194/50/1 195/51/1 196/52/1
f 197/45/1 198/46/1 199/47/1 200/48/1
f 201/53/1 202/54/1 203/55/1 204/56/1
f 205/49/1 206/50/1 207/51/1 208/52/1
f 209/45/1 210/46/1 211/47/1 212/48/1
f 213/53/1 214/54/1 215/55/1 216/56/1
f 217/49/1 218/50/1 219/51/1 220/52/1
f 221/45/1 222/46/1 223/47/1 224/48/1
f 225/53/1 226/54/1 227/55/1 228/56/1
f 229/49/1 230/50/1 231/51/1 232/52/1
f 233/45/1 234/46/1 235/47/1 236/48/1
f 237/53/1 238/54/1 239/55/1 240/56/1
f 241/57/1 242/58/1 243/59/1 244/60/1
f 245/41/1 246/42/1 247/43/1 248/44/1
f 249/45/1 250/46/1 251/47/1 252/48/1
f 253/49/1 254/50/1 255/51/1 256/52/1
f 257/45/1 258/46/1 259/47/1 260/48/1
f 261/53/1 262/54/1 263/55/1 264/56/1
f 265/49/1 266/50/1 267/51/1 268/52/1
f 269/45/1 270/46/1 271/47/1 272/48/1
f 273/53/1 274/54/1 275/55/1 276/56/1
f 277/49/1 278/50/1 279/51/1 280/52/1
f 281/45/1 282/46/1 283/47/1 284/48/1
f 285/53/1 286/54/1 287/55/1 288/56/1
f 289/49/1 290/50/1 291/51/1 292/52/1
f 293/45/1 294/46/1 295/47/1 296/48/1
f 297/53/1 298/54/1 299/55/1 300/56/1
f 301/57/1 302/58/1 303/59/1 304/60/1
f 305/61/1 306/62/1 307/63/1 308/64/1
f 309/65/1 310/66/1 311/67/1 312/68/1

